<?xml version="1.0" standalone="no"?>
<!DOCTYPE svg PUBLIC "-//W3C//DTD SVG 20010904//EN"
 "http://www.w3.org/TR/2001/REC-SVG-20010904/DTD/svg10.dtd">
<svg version="1.0" xmlns="http://www.w3.org/2000/svg"
 width="799.000000pt" height="800.000000pt" viewBox="0 0 799.000000 800.000000"
 preserveAspectRatio="xMidYMid meet">

<g transform="translate(0.000000,800.000000) scale(0.100000,-0.100000)"
fill="#343a40" stroke="none">
<path d="M3070 6280 c-14 -5 -83 -16 -155 -25 -248 -32 -445 -94 -720 -229
-276 -136 -426 -244 -620 -449 l-115 -121 -53 51 c-76 74 -124 96 -228 101
-76 4 -93 1 -150 -23 -99 -41 -103 -42 -96 -16 3 13 2 34 -3 47 -9 23 -14 24
-95 24 -176 0 -235 -40 -199 -134 4 -11 0 -16 -13 -16 -11 0 -53 -12 -94 -26
-109 -39 -187 -37 -267 6 -33 17 -65 29 -71 26 -12 -8 0 -53 25 -95 10 -17 16
-33 13 -35 -3 -3 -33 1 -68 10 -69 16 -87 13 -49 -7 12 -7 50 -38 84 -70 83
-80 135 -102 256 -107 86 -4 102 -2 150 20 l54 25 17 -29 c40 -70 196 -80 264
-16 36 34 39 73 9 119 l-26 39 53 0 c120 0 226 -63 262 -155 l17 -46 -40 -87
c-77 -167 -135 -398 -152 -602 -19 -230 25 -539 121 -859 15 -52 27 -96 26
-96 -99 -55 -142 -98 -172 -169 -36 -86 -6 -177 69 -205 32 -12 51 -13 110 -3
39 6 79 12 90 14 15 2 27 -19 65 -112 26 -63 61 -142 78 -175 70 -138 237
-325 325 -365 102 -46 175 -8 198 105 23 111 0 237 -81 445 -27 69 -49 130
-49 135 0 4 22 -13 50 -39 97 -91 368 -255 528 -320 87 -35 211 -68 231 -61
11 3 29 -8 52 -31 37 -39 92 -71 154 -89 39 -12 40 -13 43 -61 3 -58 -10 -76
-93 -129 -104 -67 -154 -139 -155 -223 0 -88 54 -134 180 -152 225 -32 481 80
556 244 14 30 30 94 37 143 11 84 14 91 49 122 l36 32 77 -10 c127 -15 477 11
635 49 99 23 90 26 90 -27 0 -94 57 -402 111 -601 45 -170 130 -272 224 -272
77 0 123 45 158 154 20 66 22 85 18 266 -3 107 -5 281 -5 385 -1 176 1 195 23
261 24 70 25 71 89 104 99 51 228 147 312 231 168 169 247 382 266 720 l7 117
43 31 c50 35 99 115 108 176 9 58 -16 169 -60 268 -98 222 -107 248 -93 274
26 49 251 273 320 319 232 154 511 123 714 -81 94 -94 129 -165 130 -261 0
-59 -5 -80 -30 -130 l-31 -59 -65 -6 c-138 -12 -268 -135 -366 -346 -78 -168
-143 -417 -130 -496 5 -33 4 -35 -46 -56 -29 -11 -74 -38 -102 -59 -44 -33
-54 -36 -77 -28 -67 24 -210 -62 -256 -154 -10 -22 -22 -37 -25 -34 -12 12
-48 -19 -69 -59 -14 -28 -23 -67 -26 -119 -4 -64 -1 -84 18 -122 12 -25 34
-56 48 -68 l27 -23 0 -215 c1 -242 14 -335 68 -480 73 -193 225 -355 419 -444
271 -126 694 -124 1079 4 250 83 424 199 524 349 85 130 124 272 149 547 16
169 17 173 47 205 33 36 69 99 69 124 0 8 5 15 10 15 6 0 10 16 10 35 0 19 -4
35 -9 35 -5 0 -13 14 -16 31 -12 55 -81 113 -171 143 -43 14 -86 26 -95 26 -8
0 -34 27 -57 60 -24 33 -56 69 -72 81 l-28 22 0 186 c0 205 -14 308 -55 409
-39 97 -86 170 -158 244 l-66 68 32 20 c54 33 84 116 65 176 -22 67 -84 120
-172 148 -10 3 -18 13 -18 23 0 35 -82 260 -130 358 -120 244 -264 406 -451
509 -375 205 -880 94 -1280 -281 -36 -35 -70 -63 -75 -63 -5 0 -20 21 -34 48
-43 82 -219 248 -365 344 -150 100 -557 332 -692 395 -120 56 -332 126 -458
152 -226 46 -489 70 -545 51z m445 -123 c285 -54 453 -123 845 -346 404 -231
597 -380 691 -537 l37 -61 -65 -71 c-63 -70 -65 -71 -88 -56 -35 23 -84 14
-109 -19 -15 -21 -21 -45 -23 -89 -2 -70 -10 -81 -155 -200 -48 -40 -88 -76
-88 -81 0 -56 209 100 477 357 51 48 93 82 93 74 0 -8 -9 -64 -19 -124 -23
-128 -30 -217 -17 -224 14 -7 22 33 51 227 l24 172 48 44 c27 24 66 59 87 78
l39 34 -6 -45 c-15 -98 -20 -240 -9 -240 16 0 29 52 48 190 9 69 22 131 28
139 19 25 153 110 243 155 169 84 350 124 512 113 46 -4 86 -8 88 -11 3 -3 -9
-22 -25 -43 -44 -55 -74 -152 -80 -260 l-5 -91 -61 -7 c-204 -23 -378 -147
-598 -427 -247 -314 -340 -408 -490 -490 -43 -24 -78 -46 -78 -50 0 -11 94 18
156 50 67 34 132 83 213 161 29 29 55 51 56 49 7 -7 45 -160 57 -228 16 -95
16 -454 0 -572 -54 -384 -216 -579 -657 -793 -235 -114 -440 -182 -660 -219
-92 -16 -535 -59 -542 -53 -1 2 2 30 8 63 21 109 -6 281 -40 260 -4 -3 -11
-42 -14 -88 -7 -86 -39 -199 -62 -218 -11 -9 -15 -4 -21 27 -18 105 -104 273
-139 273 -23 0 -18 -21 20 -102 49 -103 69 -215 62 -353 -7 -145 -18 -177 -92
-251 -45 -46 -77 -67 -129 -88 -94 -37 -205 -52 -286 -38 -84 15 -110 33 -110
77 0 43 39 90 113 136 73 45 125 97 138 137 12 36 4 168 -12 206 -4 12 -18 57
-29 102 -12 45 -31 96 -42 115 l-21 34 -8 -28 c-4 -15 -4 -61 0 -103 l7 -75
-25 6 c-66 17 -118 81 -146 180 -37 136 -39 140 -60 140 -14 0 -24 -11 -32
-35 -12 -33 -11 -54 3 -150 5 -38 4 -40 -20 -40 -50 0 -246 71 -368 133 -174
89 -266 145 -320 197 l-47 45 11 45 c21 84 13 390 -10 390 -5 0 -13 -66 -20
-147 -12 -147 -27 -233 -42 -233 -5 0 -22 39 -40 88 -28 78 -45 133 -96 320
-12 44 -18 52 -38 52 -14 0 -26 -5 -28 -12 -6 -18 84 -305 163 -521 104 -283
133 -392 134 -508 0 -190 -53 -197 -211 -27 -166 178 -277 433 -428 986 -96
353 -110 434 -110 672 0 175 3 220 23 310 53 251 155 529 225 615 78 97 342
368 416 428 302 245 721 426 1111 481 133 19 478 15 594 -7z m2870 -558 c30
-11 55 -23 55 -26 0 -3 -9 -20 -20 -38 -47 -77 -73 -198 -50 -235 14 -22 25
-4 44 75 20 80 63 165 83 165 18 0 84 -45 145 -99 151 -133 292 -411 353 -696
10 -44 24 -88 33 -97 21 -25 69 -23 82 2 10 19 13 19 41 5 43 -23 71 -72 65
-115 -9 -59 -33 -70 -155 -70 -135 0 -177 -19 -276 -119 -73 -74 -99 -85 -130
-54 -29 29 -15 100 46 221 53 106 54 108 54 197 0 83 -3 97 -34 159 -41 84
-146 197 -236 256 -72 47 -211 100 -265 100 -59 1 -60 4 -39 125 28 155 82
265 130 265 10 0 43 -9 74 -21z m-5505 -23 c0 -7 -15 -36 -32 -62 -29 -43 -38
-49 -71 -52 -27 -2 -45 2 -59 15 -26 23 -50 71 -43 83 17 28 205 43 205 16z
m380 -48 c41 -15 97 -58 125 -94 l26 -34 -57 -79 -57 -79 -28 38 c-60 82 -156
130 -264 130 -36 0 -81 -7 -100 -14 -34 -14 -35 -14 -35 7 1 34 23 56 92 89
115 54 216 67 298 36z m-552 -140 c10 -27 9 -35 -5 -50 -8 -10 -25 -17 -37
-16 -11 1 -41 -11 -65 -28 -43 -28 -49 -29 -155 -28 -87 0 -120 5 -151 20
l-40 19 37 3 c65 6 74 51 13 66 -14 4 -25 11 -25 16 0 5 19 3 41 -5 62 -22
145 -19 225 10 38 13 87 24 109 25 37 0 42 -3 53 -32z m96 26 c22 -8 20 -31
-3 -43 -13 -7 -23 -6 -37 4 -19 15 -19 15 0 30 23 17 20 17 40 9z m64 -105
c30 -19 40 -58 18 -74 -29 -21 -93 -27 -131 -11 -38 16 -43 32 -21 74 13 25
19 28 63 26 27 0 59 -7 71 -15z m4592 -664 c0 -8 20 -67 45 -131 60 -152 78
-226 70 -280 -6 -44 -44 -111 -60 -107 -6 1 -13 35 -17 75 -13 124 -50 280
-93 389 -3 8 4 27 15 42 24 30 40 35 40 12z m1104 -290 l-1 -95 -46 -31 c-61
-40 -93 -79 -133 -162 -43 -91 -58 -185 -50 -316 l7 -104 -23 7 c-13 3 -56 6
-95 6 l-73 0 0 58 c0 186 139 521 270 652 37 37 108 79 135 80 6 0 10 -38 9
-95z m591 8 c3 -16 33 -70 66 -121 116 -179 133 -243 133 -507 0 -251 -32
-512 -89 -732 -10 -37 -11 -61 -5 -73 11 -21 60 -40 101 -40 43 0 130 36 193
80 31 22 63 40 71 40 39 0 61 92 41 170 -8 30 -13 57 -11 59 11 10 115 -37
143 -65 27 -27 32 -39 32 -79 0 -55 -23 -109 -57 -133 -13 -9 -40 -31 -58 -48
-79 -72 -321 -169 -507 -205 -123 -24 -416 -33 -420 -14 -1 6 7 12 18 14 38 7
74 42 91 90 10 29 22 47 29 44 22 -8 88 16 117 42 25 24 30 25 62 14 30 -11
37 -10 55 6 27 24 37 66 52 210 17 168 17 682 0 760 -21 95 -61 215 -95 280
-34 65 -155 195 -181 195 -9 0 -16 5 -16 10 0 19 44 29 136 29 l92 1 7 -27z
m-108 -229 c32 -60 73 -190 73 -232 0 -22 -1 -22 -31 -7 -46 24 -170 45 -265
45 -156 0 -316 -48 -397 -119 -37 -33 -37 -33 -37 -9 0 31 23 118 49 189 41
108 150 199 239 199 59 0 99 21 158 81 l49 50 65 -69 c36 -38 80 -96 97 -128z
m-117 -299 c28 -14 50 -29 50 -33 0 -4 -18 -17 -40 -30 -22 -12 -55 -36 -74
-52 -18 -17 -37 -30 -40 -30 -4 0 -47 20 -96 44 -85 41 -89 44 -71 60 10 9 40
27 67 41 67 33 139 33 204 0z m-305 -24 c-27 -26 -34 -29 -70 -22 l-40 8 30
12 c17 7 39 17 50 21 11 5 29 9 40 9 17 1 16 -3 -10 -28z m418 19 c8 0 7 -4
-1 -12 -9 -9 -16 -8 -30 6 -16 18 -16 19 1 12 10 -3 24 -6 30 -6z m74 -52 c20
-19 23 -31 23 -105 0 -83 0 -84 -22 -76 -13 4 -63 8 -112 7 -85 0 -90 1 -118
29 l-29 30 22 23 c35 37 117 87 134 80 8 -3 31 -29 52 -57 20 -29 39 -47 41
-41 4 12 -23 69 -46 95 -14 16 -14 19 -2 27 22 14 31 12 57 -12z m-549 -23 c1
-1 -13 -28 -33 -60 -19 -32 -37 -67 -41 -77 -6 -20 -15 -19 -81 8 -40 17 -41
29 -8 75 42 57 64 69 115 62 25 -3 46 -7 48 -8z m192 -70 l41 -26 -29 -37
c-38 -48 -86 -132 -80 -138 3 -2 18 12 33 33 34 46 97 113 106 113 3 0 18 -9
33 -21 l26 -21 -59 -29 c-56 -28 -113 -79 -123 -110 -3 -9 -19 0 -49 29 -24
23 -65 56 -91 73 -27 17 -48 37 -48 43 0 15 78 138 93 148 13 8 93 -23 147
-57z m-580 -133 c-13 -9 -39 -29 -56 -44 -31 -27 -31 -27 -100 -14 -66 12 -68
13 -44 26 46 25 134 49 180 49 l45 0 -25 -17z m253 -34 c31 -15 57 -31 57 -35
-1 -4 -38 -32 -83 -61 -79 -53 -82 -54 -107 -38 -14 9 -54 31 -90 49 -36 17
-67 33 -69 34 -10 6 29 39 74 60 64 31 137 28 218 -9z m645 14 c9 -6 5 -12
-15 -21 -15 -7 -43 -25 -64 -42 -35 -27 -39 -28 -70 -15 -46 18 -107 27 -114
15 -4 -5 2 -9 13 -9 22 0 112 -30 112 -37 0 -3 -15 -23 -34 -43 -19 -21 -45
-56 -57 -78 l-23 -40 -48 73 c-26 40 -48 78 -48 83 0 13 54 58 94 79 69 36
219 56 254 35z m55 -114 c-6 -113 -7 -115 -44 -73 -17 19 -44 43 -60 52 -35
21 -36 33 -7 53 30 20 90 48 104 49 7 1 9 -26 7 -81z m-1319 60 c-4 -7 -17
-26 -29 -43 -23 -31 -39 -70 -49 -117 -7 -30 -19 -33 -75 -22 -27 6 -31 10
-31 40 0 58 103 152 168 154 16 0 21 -4 16 -12z m208 -13 l48 -6 -30 -53 c-30
-52 -38 -90 -22 -100 5 -3 22 22 37 55 42 88 50 92 110 66 63 -28 135 -69 135
-77 0 -4 -12 -17 -26 -31 -41 -39 -104 -139 -104 -166 0 -22 2 -24 16 -12 8 7
24 29 34 48 21 41 97 131 111 131 5 0 24 -20 41 -45 18 -25 35 -45 40 -45 17
0 7 27 -22 60 -16 19 -29 40 -30 47 0 12 85 71 134 92 38 16 47 7 84 -83 15
-38 33 -71 40 -74 17 -5 15 41 -3 85 -8 20 -13 38 -11 40 2 2 24 -20 49 -48
54 -61 125 -195 111 -208 -18 -18 -292 -121 -360 -136 -38 -8 -79 -18 -91 -20
-19 -4 -22 -1 -20 16 2 25 4 24 -133 84 -58 26 -148 70 -200 99 -52 28 -116
60 -142 71 -26 12 -50 24 -53 27 -10 10 43 89 98 146 44 45 56 51 82 47 16 -2
51 -7 77 -10z m-4763 -125 c17 -52 29 -95 28 -96 -1 -1 -24 -9 -50 -18 -60
-20 -111 -21 -127 -1 -18 22 -7 86 23 129 21 32 86 90 93 83 1 -1 16 -45 33
-97z m6288 -28 c41 -86 53 -171 33 -233 -11 -31 -25 -47 -69 -74 -52 -33 -118
-61 -126 -53 -2 1 5 39 16 83 18 76 39 210 54 338 l7 59 25 -24 c13 -12 40
-56 60 -96z m-500 35 c29 -30 53 -60 53 -68 -1 -8 -27 -41 -58 -74 l-57 -61
-58 4 c-55 4 -58 5 -72 39 -8 20 -15 42 -15 50 0 29 114 163 138 163 8 0 39
-24 69 -53z m-1471 -67 c5 -5 45 -22 89 -37 l80 -28 -3 -45 c-2 -35 -8 -50
-28 -65 -46 -36 -91 -80 -96 -95 -5 -13 -8 -13 -33 0 -54 29 -70 63 -69 148 1
106 25 157 60 122z m1534 -119 c-3 -33 -8 -63 -12 -66 -4 -5 -66 25 -88 42 -6
6 93 92 100 88 3 -2 3 -31 0 -64z m-1252 2 c97 -53 93 -48 67 -96 -47 -84 -69
-198 -69 -352 1 -223 46 -371 148 -482 62 -68 80 -73 142 -34 61 38 119 110
219 271 89 144 159 233 253 322 70 65 281 221 341 253 32 16 37 16 68 1 40
-19 41 -33 3 -70 -17 -16 -30 -33 -30 -37 0 -12 -55 -39 -78 -39 -11 0 -31 9
-46 21 -33 26 -66 18 -66 -16 0 -14 9 -29 20 -35 31 -16 26 -65 -9 -101 -35
-34 -42 -35 -66 -9 -21 24 -67 26 -85 5 -16 -20 -6 -43 23 -54 47 -18 36 -112
-15 -140 -25 -14 -29 -14 -50 5 -31 29 -58 37 -74 23 -22 -18 -16 -48 11 -61
20 -9 25 -19 25 -47 0 -37 -23 -81 -41 -81 -6 0 -22 9 -36 20 -32 25 -49 25
-63 0 -9 -16 -5 -24 20 -46 40 -36 40 -75 1 -115 -36 -36 -89 -40 -109 -9 -15
24 -25 25 -46 4 -12 -11 -13 -20 -6 -34 33 -61 -18 -180 -77 -180 -18 0 -23 6
-23 24 0 50 -52 59 -69 13 -13 -32 -58 -67 -88 -67 -32 0 -80 26 -93 49 -14
27 -13 29 11 33 31 4 46 32 29 53 -11 13 -25 15 -80 9 -71 -7 -121 9 -134 41
-14 38 -6 86 19 111 14 14 25 31 25 39 0 17 -34 28 -60 20 -28 -9 -70 20 -70
47 0 12 9 41 21 65 17 35 26 43 49 43 31 0 55 23 46 45 -3 8 -30 27 -61 41
-64 30 -85 55 -85 99 0 42 44 105 71 102 12 -1 26 6 33 16 9 15 7 21 -14 37
-71 54 -82 65 -91 88 -12 30 5 59 69 119 42 39 44 45 39 82 -3 24 -1 41 5 41
5 0 40 -16 76 -37z m304 -150 c70 -31 75 -47 13 -37 -47 7 -95 -1 -95 -15 0
-22 70 -36 180 -36 131 1 201 17 386 90 112 44 250 82 261 71 8 -7 21 2 -127
-97 -130 -87 -269 -211 -350 -314 -26 -33 -80 -114 -120 -180 -126 -206 -184
-274 -217 -257 -37 20 -115 114 -138 166 -72 162 -73 451 -4 613 36 84 15 84
211 -4z m-512 -123 l37 -40 -23 -21 c-13 -12 -31 -41 -40 -65 -23 -60 -12
-106 37 -159 l40 -43 -26 -47 c-45 -86 -29 -162 41 -191 30 -13 32 -15 22 -42
-29 -77 31 -166 120 -178 48 -6 52 -9 52 -34 0 -102 189 -150 259 -66 10 12
18 13 36 4 13 -6 35 -8 48 -4 57 14 127 102 127 161 0 22 4 25 36 25 74 0 144
75 144 153 0 26 6 36 25 45 31 14 65 68 65 103 0 21 7 28 39 38 42 12 77 48
88 89 l6 24 146 -7 c163 -7 262 2 411 40 105 27 251 82 318 122 24 13 45 23
48 20 6 -6 -15 -201 -32 -296 -20 -113 -63 -226 -113 -299 -157 -231 -539
-389 -986 -409 -392 -17 -672 105 -839 364 -107 166 -136 278 -143 556 -6 221
-5 224 57 157z m-870 -54 c0 -2 -8 -21 -17 -42 -16 -35 -18 -79 -18 -434 0
-354 -2 -400 -18 -440 -21 -52 -53 -90 -78 -90 -25 0 -77 47 -98 89 -29 57
-57 154 -101 363 -34 154 -42 215 -44 303 l-1 109 100 36 c55 20 136 53 180
72 80 36 95 41 95 34z"/>
<path d="M4150 5740 c-177 -44 -342 -137 -411 -233 -31 -43 -37 -67 -16 -67 6
0 48 32 92 71 126 112 262 169 518 219 31 6 55 16 52 21 -10 15 -156 9 -235
-11z"/>
<path d="M4500 5623 c-14 -3 -115 -32 -225 -65 -331 -99 -450 -171 -560 -338
-60 -91 -77 -130 -57 -130 14 0 56 50 121 142 103 146 176 186 583 314 125 39
212 72 205 76 -13 8 -26 8 -67 1z"/>
<path d="M1708 5252 c-84 -92 -187 -277 -282 -509 -129 -315 -113 -509 48
-588 44 -21 79 -29 173 -37 129 -11 173 -24 197 -60 8 -13 22 -73 31 -133 24
-174 56 -255 133 -338 233 -249 625 -166 787 168 49 101 72 195 100 407 48
354 114 526 275 714 54 64 58 75 35 94 -13 11 -21 8 -51 -21 -55 -53 -128
-156 -172 -244 -70 -140 -101 -251 -151 -551 -37 -217 -68 -313 -133 -410 -59
-88 -113 -137 -193 -175 -96 -45 -99 -44 -103 23 -2 43 5 80 33 162 37 112 42
141 25 151 -21 13 -99 -213 -107 -308 l-6 -69 -50 5 c-73 7 -80 21 -74 137 3
53 17 138 31 193 29 109 30 117 16 117 -34 0 -87 -175 -97 -317 -3 -51 -9 -93
-14 -93 -4 0 -32 23 -63 51 -71 64 -80 96 -73 249 6 128 15 170 52 224 41 61
25 79 -24 27 -34 -36 -60 -115 -68 -204 -3 -37 -8 -65 -10 -63 -3 3 -9 38 -13
80 -23 200 -73 249 -266 262 -122 7 -170 19 -211 50 -92 70 -81 213 40 539 61
164 102 249 186 389 39 66 71 123 71 128 0 19 -21 4 -72 -50z"/>
<path d="M3834 4829 c-74 -36 -69 -185 8 -225 89 -46 180 71 133 170 -27 56
-88 80 -141 55z"/>
<path d="M3945 4394 c-72 -132 -114 -172 -202 -193 l-38 -9 53 -1 c64 -1 95
14 148 71 53 57 128 184 120 203 -12 32 -36 11 -81 -71z"/>
<path d="M4715 4096 c-81 -19 -128 -40 -206 -92 -87 -57 -144 -120 -182 -202
-27 -58 -32 -78 -31 -147 0 -101 26 -159 81 -182 68 -28 153 1 325 109 102 65
137 76 285 86 122 10 150 21 183 75 25 41 25 98 1 151 -11 23 -22 49 -25 59
-3 9 -17 21 -30 27 -13 5 -46 25 -73 44 -100 71 -217 97 -328 72z m125 -67
c27 -50 -21 -99 -98 -99 -46 0 -57 11 -65 62 -5 35 -4 38 21 44 15 3 32 7 37
9 6 2 29 4 52 4 33 1 45 -4 53 -20z m145 -29 c70 -40 82 -55 56 -70 -32 -17
-87 -15 -115 4 -21 13 -26 25 -26 56 0 50 13 51 85 10z m-355 -18 c0 -60 -43
-132 -79 -132 -16 0 -61 57 -61 76 0 10 123 83 131 78 5 -3 9 -13 9 -22z m273
-72 c38 -36 89 -45 146 -26 27 9 52 16 54 16 3 0 12 -18 21 -40 20 -50 13 -83
-26 -115 -26 -22 -39 -25 -109 -25 -43 0 -79 4 -79 10 0 15 -179 87 -262 104
l-27 6 22 35 c15 23 27 32 37 28 38 -16 116 -14 150 5 46 25 47 25 73 2z
m-441 -47 c53 -48 -29 -217 -90 -184 -31 16 -32 35 -6 91 22 47 63 108 73 109
3 1 13 -6 23 -16z m209 -69 c51 -15 159 -72 159 -84 0 -3 -26 -17 -57 -32 -32
-15 -100 -54 -151 -87 -170 -110 -262 -100 -279 30 -6 39 -5 41 15 30 11 -6
30 -11 41 -11 28 0 96 70 110 113 19 56 69 68 162 41z"/>
</g>
</svg>
